<?xml version="1.0" standalone="no"?>
<!DOCTYPE svg PUBLIC "-//W3C//DTD SVG 20010904//EN"
 "http://www.w3.org/TR/2001/REC-SVG-20010904/DTD/svg10.dtd">
<svg version="1.0" xmlns="http://www.w3.org/2000/svg"
 width="1200.000000pt" height="1200.000000pt" viewBox="0 0 1200.000000 1200.000000"
 preserveAspectRatio="xMidYMid meet">
<metadata>
Created by potrace 1.11, written by Peter Selinger 2001-2013
</metadata>
<g transform="translate(0.000000,1200.000000) scale(0.100000,-0.100000)"
fill="#000000" stroke="none">
<path d="M7578 10515 c-2 -1 -37 -5 -78 -8 -143 -11 -281 -48 -418 -113 -352
-165 -595 -461 -694 -843 -27 -102 -30 -134 -32 -271 -1 -204 14 -307 71 -463
154 -420 519 -724 973 -812 72 -13 364 -15 415 -3 11 3 38 8 60 12 52 9 205
61 275 94 281 131 514 376 632 664 114 281 124 597 27 882 -129 376 -418 665
-794 794 -52 18 -114 34 -130 33 -2 0 -19 5 -37 10 -18 5 -71 12 -118 15 -47
3 -100 7 -117 8 -18 2 -34 2 -35 1z"/>
<path d="M4290 9809 c-84 -15 -95 -18 -177 -60 -242 -122 -361 -406 -279 -664
60 -188 214 -335 404 -385 90 -23 224 -17 319 15 188 64 340 242 373 436 32
189 -25 366 -159 499 -130 128 -312 188 -481 159z"/>
<path d="M7557 7264 c-1 -1 -31 -4 -67 -8 -36 -3 -76 -8 -90 -11 -14 -3 -38
-8 -55 -11 -110 -20 -304 -100 -412 -170 -310 -202 -532 -548 -571 -894 -9
-85 -9 -292 1 -355 59 -371 270 -690 592 -893 121 -76 301 -144 440 -166 17
-2 50 -8 74 -11 55 -9 231 -9 291 0 317 45 561 170 782 401 51 54 128 153 128
165 0 4 6 14 13 21 7 7 29 45 48 83 105 203 144 372 142 610 -6 586 -428 1093
-1011 1214 -72 15 -295 33 -305 25z"/>
<path d="M4279 7176 c-2 -2 -29 -6 -59 -9 -296 -30 -624 -217 -827 -472 -114
-144 -214 -362 -248 -540 -26 -138 -26 -330 0 -470 14 -74 19 -94 42 -165 145
-434 517 -759 971 -846 92 -18 295 -24 393 -11 337 43 659 237 861 518 100
140 192 351 214 493 3 21 8 48 11 60 3 11 6 80 8 151 6 200 -29 378 -105 540
-18 39 -34 73 -34 77 -1 4 -27 47 -59 96 -52 80 -72 105 -151 192 -76 85 -222
192 -344 254 -66 33 -225 92 -276 102 -113 22 -158 27 -267 30 -70 2 -128 1
-130 0z"/>
<path d="M4347 4014 c-1 -1 -33 -4 -72 -8 -106 -9 -130 -13 -213 -36 -330 -91
-604 -303 -773 -599 -40 -69 -105 -218 -114 -259 -2 -9 -11 -47 -19 -84 -22
-90 -30 -165 -30 -273 0 -88 11 -233 19 -245 2 -4 7 -22 10 -41 3 -19 19 -73
35 -121 115 -342 376 -622 711 -764 80 -34 247 -78 334 -89 60 -8 278 -8 303
-1 9 3 33 7 52 10 90 14 179 37 240 63 383 157 648 440 763 813 29 95 32 110
47 229 57 449 -158 919 -538 1179 -122 84 -299 165 -406 186 -12 3 -46 10 -76
16 -71 14 -264 31 -273 24z"/>
<path d="M7519 3434 c-279 -52 -470 -279 -471 -559 -1 -316 267 -575 582 -564
256 9 489 203 538 447 14 70 7 224 -12 282 -91 274 -366 444 -637 394z"/>
</g>
</svg>
