<?xml version="1.0" standalone="no"?>
<!DOCTYPE svg PUBLIC "-//W3C//DTD SVG 20010904//EN"
 "http://www.w3.org/TR/2001/REC-SVG-20010904/DTD/svg10.dtd">
<svg version="1.0" xmlns="http://www.w3.org/2000/svg"
 width="700.000000pt" height="700.000000pt" viewBox="0 0 700.000000 700.000000"
 preserveAspectRatio="xMidYMid meet">
<metadata>
Created by potrace 1.11, written by Peter Selinger 2001-2013
</metadata>
<g transform="translate(0.000000,700.000000) scale(0.100000,-0.100000)"
fill="#000000" stroke="none">
<path d="M4620 6823 c-230 -19 -442 -119 -602 -286 -109 -113 -201 -286 -235
-439 -21 -97 -21 -290 1 -387 72 -325 317 -590 637 -689 80 -25 149 -35 254
-36 404 -8 773 264 890 655 138 459 -108 954 -556 1123 -117 44 -274 68 -389
59z"/>
<path d="M2236 6284 c-100 -24 -178 -80 -240 -174 -85 -127 -92 -293 -19 -419
118 -203 362 -273 563 -162 52 29 133 109 156 153 105 203 43 442 -146 559
-81 50 -209 68 -314 43z"/>
<path d="M2215 4368 c-49 -6 -95 -15 -165 -33 -8 -2 -61 -24 -105 -42 -75 -32
-167 -92 -249 -163 -45 -39 -142 -164 -181 -235 -40 -71 -70 -146 -86 -215 -6
-25 -13 -54 -16 -65 -2 -11 -6 -76 -8 -145 -3 -145 20 -264 77 -391 96 -216
294 -403 513 -486 114 -42 208 -58 346 -56 238 3 462 97 626 265 97 99 151
178 200 293 55 130 68 205 67 385 -2 191 -39 313 -144 475 -187 290 -539 456
-875 413z"/>
<path d="M4625 4373 c-221 -14 -447 -119 -603 -282 -82 -86 -165 -213 -192
-296 -7 -22 -16 -44 -20 -50 -5 -5 -10 -24 -13 -42 -3 -17 -7 -35 -10 -40 -19
-30 -28 -251 -14 -343 19 -129 98 -326 155 -388 6 -7 12 -17 12 -22 0 -19 171
-180 238 -224 183 -120 427 -174 642 -142 351 53 646 311 744 650 108 370 -13
746 -317 988 -90 71 -251 148 -342 164 -16 3 -46 9 -65 14 -38 10 -151 17
-215 13z"/>
<path d="M2210 2007 c-3 -3 -26 -8 -52 -11 -69 -9 -194 -52 -268 -93 -299
-162 -476 -451 -485 -788 -7 -269 77 -477 270 -670 194 -194 408 -279 680
-270 404 13 740 280 856 680 19 65 23 105 23 215 1 161 -4 202 -39 306 -98
294 -323 511 -622 600 -69 21 -116 27 -223 31 -74 3 -137 3 -140 0z"/>
<path d="M4595 1649 c-194 -64 -311 -224 -303 -414 4 -114 41 -197 121 -278
50 -49 142 -100 202 -112 89 -17 194 -1 278 42 52 26 157 125 157 148 0 7 6
18 14 24 38 32 59 205 36 292 -28 105 -113 214 -200 259 -89 46 -229 63 -305
39z"/>
</g>
</svg>
