<?xml version="1.0" standalone="no"?>
<!DOCTYPE svg PUBLIC "-//W3C//DTD SVG 20010904//EN"
 "http://www.w3.org/TR/2001/REC-SVG-20010904/DTD/svg10.dtd">
<svg version="1.0" xmlns="http://www.w3.org/2000/svg"
 width="1200.000000pt" height="1200.000000pt" viewBox="0 0 1200.000000 1200.000000"
 preserveAspectRatio="xMidYMid meet">
<metadata>
Created by potrace 1.11, written by Peter Selinger 2001-2013
</metadata>
<g transform="translate(0.000000,1200.000000) scale(0.100000,-0.100000)"
fill="#000000" stroke="none">
<path d="M5855 9154 c-220 -34 -344 -99 -561 -294 -284 -256 -530 -441 -893
-674 -479 -307 -1052 -581 -1636 -782 -202 -69 -286 -117 -366 -208 -47 -53
-57 -73 -67 -122 -6 -33 -104 -574 -218 -1204 -223 -1238 -219 -1204 -174
-1308 28 -64 127 -151 265 -234 61 -36 459 -265 885 -508 748 -428 2047 -1176
2335 -1345 195 -115 218 -126 320 -149 73 -17 123 -21 260 -21 165 0 173 1
275 34 58 18 123 42 145 54 74 37 2586 1482 3130 1800 313 183 368 219 437
284 49 47 60 65 79 125 15 50 20 86 16 126 -2 32 -88 552 -191 1158 -102 605
-186 1110 -186 1122 0 49 -46 135 -105 198 -69 73 -197 150 -1215 729 -641
364 -1526 877 -1826 1057 -208 126 -241 140 -386 163 -116 18 -201 18 -323 -1z
m335 -301 c66 -17 211 -87 335 -162 50 -29 558 -324 1130 -654 1024 -591 1557
-901 1645 -959 85 -56 102 -104 65 -178 -23 -45 -186 -198 -461 -432 -101 -86
-350 -271 -595 -440 -176 -122 -550 -334 -884 -500 -350 -174 -595 -270 -1063
-413 -273 -84 -303 -88 -486 -59 -126 20 -177 44 -481 227 -272 165 -1063 623
-2020 1170 -477 274 -697 405 -714 426 -13 17 -26 50 -28 74 -5 39 -1 48 27
81 52 59 135 97 477 220 295 106 348 128 652 281 647 323 949 517 1495 959
386 312 425 337 573 370 79 18 244 13 333 -11z m-2865 -2578 c1008 -577 1708
-983 1977 -1146 336 -204 380 -225 546 -250 219 -34 284 -27 572 64 504 158
734 249 1095 430 525 262 790 423 1260 766 151 109 407 326 622 525 18 16 35
28 37 25 3 -3 80 -449 171 -991 120 -715 163 -993 156 -1010 -7 -20 -41 -53
-106 -106 -43 -35 -484 -292 -1015 -592 -256 -144 -866 -496 -1356 -780 -490
-285 -908 -527 -930 -538 -69 -35 -157 -59 -267 -73 -193 -23 -353 15 -546
129 -64 38 -168 98 -231 132 -63 35 -344 198 -625 363 -280 165 -769 447
-1085 627 -316 180 -685 393 -819 474 -133 80 -282 166 -330 191 -47 24 -111
65 -141 91 -109 93 -117 -8 85 1110 96 533 175 973 175 977 0 5 6 7 13 4 7 -2
341 -193 742 -422z"/>
<path d="M3920 7185 c-476 -239 -503 -254 -477 -264 16 -6 35 -11 44 -11 9 0
118 52 242 116 193 99 228 114 248 105 12 -6 213 -124 445 -262 233 -138 432
-256 444 -261 14 -7 31 -5 53 4 l32 13 -455 270 c-251 149 -456 273 -456 277
0 3 103 60 230 124 212 109 228 119 207 131 -12 7 -29 12 -37 12 -8 0 -242
-114 -520 -254z"/>
</g>
</svg>
