<svg id="Layer_1" data-name="Layer 1" xmlns="http://www.w3.org/2000/svg" viewBox="0 0 74.71 82.92"><defs><style>.cls-1,.cls-2{fill:none;stroke:#000;stroke-linecap:round;stroke-linejoin:round;}.cls-2{stroke-width:2px;}</style></defs><title>cat-black</title><g id="c"><path d="M43.78,28.85a4,4,0,0,0,.15,1.35,4.11,4.11,0,0,0,.5,1.15q.35.45.65.35t.3-.6a3,3,0,0,0-.1-1.3,3.35,3.35,0,0,0-.55-1.2q-.3-.4-.55-.35t-.4.6m-22.15,6.8q-.3,0-.4.6a6,6,0,0,0,.2,1.45A3.39,3.39,0,0,0,22,39q.35.55.65.5t.35-.75a6.36,6.36,0,0,0-.2-1.4A4.57,4.57,0,0,0,22.23,36Q21.93,35.55,21.63,35.65Z" transform="translate(-0.97 -1.3)"/></g><path id="b" class="cls-1" d="M57.43,2l.07.35" transform="translate(-0.97 -1.3)"/><path id="a" class="cls-2" d="M72.68,30.15a5,5,0,0,1,0,3.6,3.16,3.16,0,0,1-1.45,1.15,3.33,3.33,0,0,1-2,.2q-.11,2.65-3,5Q61.33,44,60.65,44l0,.1a36.05,36.05,0,0,1,2,9Q69.44,49,70,52.65a8.54,8.54,0,0,1-1.43,6.4q-2.65,4.3-5.9,4.25l-2.7-.85a39.24,39.24,0,0,1-8.35,4q1.8,2.53,3.6,9.38.95,4.85-1.05,6.8a2,2,0,0,1-2.3.45q-3.95-1.65-5.75-8.2L45,68.6,38.28,70q-2,6.91-7.75,5.85-6.25-1.35-8-4.55a4.76,4.76,0,0,1-.6-2.1,25,25,0,0,1-5.35-6.05l-1.3-2.8Q9,60.05,7,57.5a4,4,0,0,1-.8-1.75q-.35-2.9,3.7-3.5a21.52,21.52,0,0,1,4.15-.2q-.94-1.67-1.73-3.33L8.78,51M57.5,2.3,58,4.8,60,4.3a14.62,14.62,0,0,1,4.65-.15q7.2,1,10.05,9.3a5.53,5.53,0,0,0-2.75-.7q-3-.1-4,3.2-4.6-.45-6.15-.45h0l.43,1.25-.1-.15.22.8.38,1.2L62.45,18l.2.65.2.67.13.4L66.33,31a2.8,2.8,0,0,1,1.95.7,4.35,4.35,0,0,1,.95,2.6,4.88,4.88,0,0,1,0,.8M62,16.53a6.49,6.49,0,0,1-.28-1q-.29.14.13.8l.1.15.05.07.05.08-.33-1.1A13.6,13.6,0,0,0,55.68,19q.51.21-.08.15h-.07a.07.07,0,0,1,0,0l0-.08a13.43,13.43,0,0,0-3.2-.52,4.12,4.12,0,0,0-3.15.8,12.34,12.34,0,0,1-.05-6Q50.58,7,58,4.8a10.14,10.14,0,0,1,4.05,1.85A14.86,14.86,0,0,1,67.93,16m-6,.5.48,1.5-.15-.55L62,16.53M62.45,18q-.36-1.06-.58-1.65M58,4.8a10.85,10.85,0,0,0-2.5,4.1q-1.87,4.29,0,10.12l.07,0,.08-.08v0l0,0-.05.1M10.78,22.3a8.73,8.73,0,0,0-3.25-1.1Q4,20.65,2.43,23.45a6,6,0,0,0-.1,4.35q1.4,3,5.6,5.25Q7.08,22.9,18.78,16.3a38.41,38.41,0,0,1,12-4.15,11.19,11.19,0,0,1,.8-2.7q1.2-2.75,3.25-3.15a3.62,3.62,0,0,1,3,.85q2.4,2,4.55,7.57a21.71,21.71,0,0,1,2.5,1.83,15.42,15.42,0,0,1,4,4.5q2.49,3.51,4.58,7l3.92-1.25m-15-12.08q-3.7-2.33-11.6-2.58M45.28,29.8a3,3,0,0,1,.1,1.3q0,.55-.3.6t-.65-.35a4.11,4.11,0,0,1-.5-1.15,4,4,0,0,1-.15-1.35q.1-.5.4-.6t.55.35A3.35,3.35,0,0,1,45.28,29.8Zm-7,5.15q.15.65-.65,1.35a5.18,5.18,0,0,1-2.1,1,5.06,5.06,0,0,1-2.3.15q-1.1-.2-1.25-.85t.65-1.45a5.13,5.13,0,0,1,2-1,5.87,5.87,0,0,1,2.35-.2A1.5,1.5,0,0,1,38.33,35ZM55.68,19h0v0l-.1.1v0l0,0m.15-.15,0,0,0,0h0l-.1.07v0a.08.08,0,0,1,0,0h0l-.07.07,0-.07M52,31.55l3.1-.35q-.84-1.57-1.77-3.15l-3.17,1m4.95,2.15,4.55-.5m-1.5,5.35L62,32.8a8.52,8.52,0,0,1,4.3-1.8m-58.4,2,.75,5.4a45.31,45.31,0,0,0,1.83,6.1l3.77-1.1m8.5-6.1a6.36,6.36,0,0,1,.2,1.4q0,.65-.35.75T22,39a3.39,3.39,0,0,1-.55-1.3,6,6,0,0,1-.2-1.45q.1-.55.4-.6t.6.35A4.57,4.57,0,0,1,22.78,37.35ZM10.5,44.55q.78,2.08,1.8,4.17l2.63-1.67M18.68,60.3h-3.4m23,9.65a4.56,4.56,0,0,0-1-4.65q-3.1-3.45-9.35-3a5.67,5.67,0,0,0-3.1.9q-3,1.55-2.9,6M7,45.55l3.48-1M45,68.6q3.65-1.11,6.55-2.18M60.65,44a74.83,74.83,0,0,0-5.53-12.8" transform="translate(-0.97 -1.3)"/></svg>